HIERARCHY
ROOT mixamorig:Hips
{
	OFFSET -0.000008 104.274872 1.554316
	CHANNELS 6 Xposition Yposition Zposition Xrotation Yrotation Zrotation
	JOINT mixamorig:Spine
	{
		OFFSET -0.000005 10.181595 0.131519
		CHANNELS 6 Xposition Yposition Zposition Xrotation Yrotation Zrotation
		JOINT mixamorig:Spine1
		{
			OFFSET -0.000000 9.893959 -1.470707
			CHANNELS 6 Xposition Yposition Zposition Xrotation Yrotation Zrotation
			JOINT mixamorig:Spine2
			{
				OFFSET -0.000000 9.220757 -1.370641
				CHANNELS 6 Xposition Yposition Zposition Xrotation Yrotation Zrotation
				JOINT mixamorig:Neck
				{
					OFFSET 0.000001 16.740417 -2.049036
					CHANNELS 6 Xposition Yposition Zposition Xrotation Yrotation Zrotation
					JOINT mixamorig:Head
					{
						OFFSET 0.000000 9.617874 1.685006
						CHANNELS 6 Xposition Yposition Zposition Xrotation Yrotation Zrotation
						JOINT mixamorig:HeadTop_End
						{
							OFFSET 0.000002 22.037354 7.501101
							CHANNELS 6 Xposition Yposition Zposition Xrotation Yrotation Zrotation
							End Site
							{
								OFFSET 0.000168 2310.654297 -282.823242
							}
						}
					}
				}
				JOINT mixamorig:RightShoulder
				{
					OFFSET -4.569970 11.014908 -2.160885
					CHANNELS 6 Xposition Yposition Zposition Xrotation Yrotation Zrotation
					JOINT mixamorig:RightArm
					{
						OFFSET -10.592851 -0.524811 -2.232101
						CHANNELS 6 Xposition Yposition Zposition Xrotation Yrotation Zrotation
						JOINT mixamorig:RightForeArm
						{
							OFFSET -27.841511 0.000031 -0.000004
							CHANNELS 6 Xposition Yposition Zposition Xrotation Yrotation Zrotation
							JOINT mixamorig:RightHand
							{
								OFFSET -28.328831 -0.000015 0.000015
								CHANNELS 6 Xposition Yposition Zposition Xrotation Yrotation Zrotation
								JOINT mixamorig:RightHandThumb1
								{
									OFFSET -2.464806 -1.573990 2.681852
									CHANNELS 6 Xposition Yposition Zposition Xrotation Yrotation Zrotation
									JOINT mixamorig:RightHandThumb2
									{
										OFFSET -3.215179 -1.872803 1.924282
										CHANNELS 6 Xposition Yposition Zposition Xrotation Yrotation Zrotation
										JOINT mixamorig:RightHandThumb3
										{
											OFFSET -2.654831 -1.527969 1.512609
											CHANNELS 6 Xposition Yposition Zposition Xrotation Yrotation Zrotation
											JOINT mixamorig:RightHandThumb4
											{
												OFFSET -2.018814 -1.152008 1.108052
												CHANNELS 6 Xposition Yposition Zposition Xrotation Yrotation Zrotation
												End Site
												{
													OFFSET -188.809540 -114.533607 132.431396
												}
											}
										}
									}
								}
								JOINT mixamorig:RightHandIndex1
								{
									OFFSET -9.108284 -0.517868 2.259835
									CHANNELS 6 Xposition Yposition Zposition Xrotation Yrotation Zrotation
									JOINT mixamorig:RightHandIndex2
									{
										OFFSET -3.699989 0.000000 0.001215
										CHANNELS 6 Xposition Yposition Zposition Xrotation Yrotation Zrotation
										JOINT mixamorig:RightHandIndex3
										{
											OFFSET -2.850006 0.000031 -0.000522
											CHANNELS 6 Xposition Yposition Zposition Xrotation Yrotation Zrotation
											JOINT mixamorig:RightHandIndex4
											{
												OFFSET -2.772186 -0.000015 -0.000020
												CHANNELS 6 Xposition Yposition Zposition Xrotation Yrotation Zrotation
												End Site
												{
													OFFSET -277.218445 0.000000 -0.050231
												}
											}
										}
									}
								}
								JOINT mixamorig:RightHandMiddle1
								{
									OFFSET -9.532516 -0.000031 -0.000023
									CHANNELS 6 Xposition Yposition Zposition Xrotation Yrotation Zrotation
									JOINT mixamorig:RightHandMiddle2
									{
										OFFSET -3.700005 -0.000015 0.003713
										CHANNELS 6 Xposition Yposition Zposition Xrotation Yrotation Zrotation
										JOINT mixamorig:RightHandMiddle3
										{
											OFFSET -2.949974 0.000015 -0.002054
											CHANNELS 6 Xposition Yposition Zposition Xrotation Yrotation Zrotation
											JOINT mixamorig:RightHandMiddle4
											{
												OFFSET -2.946640 0.000000 -0.000156
												CHANNELS 6 Xposition Yposition Zposition Xrotation Yrotation Zrotation
												End Site
												{
													OFFSET -294.664337 0.000000 -0.113670
												}
											}
										}
									}
								}
								JOINT mixamorig:RightHandRing1
								{
									OFFSET -9.103600 -0.043076 -1.865134
									CHANNELS 6 Xposition Yposition Zposition Xrotation Yrotation Zrotation
									JOINT mixamorig:RightHandRing2
									{
										OFFSET -3.379288 0.000000 -0.001055
										CHANNELS 6 Xposition Yposition Zposition Xrotation Yrotation Zrotation
										JOINT mixamorig:RightHandRing3
										{
											OFFSET -2.889687 -0.000015 0.000379
											CHANNELS 6 Xposition Yposition Zposition Xrotation Yrotation Zrotation
											JOINT mixamorig:RightHandRing4
											{
												OFFSET -2.638809 -0.000015 0.000941
												CHANNELS 6 Xposition Yposition Zposition Xrotation Yrotation Zrotation
												End Site
												{
													OFFSET -263.880371 0.000000 0.516020
												}
											}
										}
									}
								}
								JOINT mixamorig:RightHandPinky1
								{
									OFFSET -8.076683 -0.486710 -3.806280
									CHANNELS 6 Xposition Yposition Zposition Xrotation Yrotation Zrotation
									JOINT mixamorig:RightHandPinky2
									{
										OFFSET -3.600014 -0.000015 -0.003747
										CHANNELS 6 Xposition Yposition Zposition Xrotation Yrotation Zrotation
										JOINT mixamorig:RightHandPinky3
										{
											OFFSET -2.099983 0.000000 -0.005739
											CHANNELS 6 Xposition Yposition Zposition Xrotation Yrotation Zrotation
											JOINT mixamorig:RightHandPinky4
											{
												OFFSET -2.115768 -0.000031 -0.003680
												CHANNELS 6 Xposition Yposition Zposition Xrotation Yrotation Zrotation
												End Site
												{
													OFFSET -211.577087 0.000000 -0.350686
												}
											}
										}
									}
								}
							}
						}
					}
				}
				JOINT mixamorig:LeftShoulder
				{
					OFFSET 4.570447 11.014725 -2.160855
					CHANNELS 6 Xposition Yposition Zposition Xrotation Yrotation Zrotation
					JOINT mixamorig:LeftArm
					{
						OFFSET 10.592371 -0.524597 -2.232119
						CHANNELS 6 Xposition Yposition Zposition Xrotation Yrotation Zrotation
						JOINT mixamorig:LeftForeArm
						{
							OFFSET 27.841532 -0.000031 0.000026
							CHANNELS 6 Xposition Yposition Zposition Xrotation Yrotation Zrotation
							JOINT mixamorig:LeftHand
							{
								OFFSET 28.328846 -0.000061 0.000022
								CHANNELS 6 Xposition Yposition Zposition Xrotation Yrotation Zrotation
								JOINT mixamorig:LeftHandThumb1
								{
									OFFSET 2.466141 -1.576172 2.681732
									CHANNELS 6 Xposition Yposition Zposition Xrotation Yrotation Zrotation
									JOINT mixamorig:LeftHandThumb2
									{
										OFFSET 3.217812 -1.872070 1.916482
										CHANNELS 6 Xposition Yposition Zposition Xrotation Yrotation Zrotation
										JOINT mixamorig:LeftHandThumb3
										{
											OFFSET 2.656029 -1.528778 1.514513
											CHANNELS 6 Xposition Yposition Zposition Xrotation Yrotation Zrotation
											JOINT mixamorig:LeftHandThumb4
											{
												OFFSET 2.020889 -1.154053 1.115139
												CHANNELS 6 Xposition Yposition Zposition Xrotation Yrotation Zrotation
												End Site
												{
													OFFSET 190.885437 -115.081749 130.048782
												}
											}
										}
									}
								}
								JOINT mixamorig:LeftHandIndex1
								{
									OFFSET 9.109314 -0.518021 2.259871
									CHANNELS 6 Xposition Yposition Zposition Xrotation Yrotation Zrotation
									JOINT mixamorig:LeftHandIndex2
									{
										OFFSET 3.699989 0.000000 -0.000322
										CHANNELS 6 Xposition Yposition Zposition Xrotation Yrotation Zrotation
										JOINT mixamorig:LeftHandIndex3
										{
											OFFSET 2.850006 0.000000 0.000352
											CHANNELS 6 Xposition Yposition Zposition Xrotation Yrotation Zrotation
											JOINT mixamorig:LeftHandIndex4
											{
												OFFSET 2.774864 -0.000031 -0.000027
												CHANNELS 6 Xposition Yposition Zposition Xrotation Yrotation Zrotation
												End Site
												{
													OFFSET 277.486267 0.000000 -0.009857
												}
											}
										}
									}
								}
								JOINT mixamorig:LeftHandMiddle1
								{
									OFFSET 9.533394 0.000061 0.000044
									CHANNELS 6 Xposition Yposition Zposition Xrotation Yrotation Zrotation
									JOINT mixamorig:LeftHandMiddle2
									{
										OFFSET 3.699989 -0.000015 -0.000231
										CHANNELS 6 Xposition Yposition Zposition Xrotation Yrotation Zrotation
										JOINT mixamorig:LeftHandMiddle3
										{
											OFFSET 2.949997 -0.000015 -0.000059
											CHANNELS 6 Xposition Yposition Zposition Xrotation Yrotation Zrotation
											JOINT mixamorig:LeftHandMiddle4
											{
												OFFSET 2.952896 0.000031 0.000063
												CHANNELS 6 Xposition Yposition Zposition Xrotation Yrotation Zrotation
												End Site
												{
													OFFSET 295.289337 0.000000 0.022810
												}
											}
										}
									}
								}
								JOINT mixamorig:LeftHandRing1
								{
									OFFSET 9.104523 -0.042999 -1.865074
									CHANNELS 6 Xposition Yposition Zposition Xrotation Yrotation Zrotation
									JOINT mixamorig:LeftHandRing2
									{
										OFFSET 3.150009 -0.000031 0.000043
										CHANNELS 6 Xposition Yposition Zposition Xrotation Yrotation Zrotation
										JOINT mixamorig:LeftHandRing3
										{
											OFFSET 2.949982 -0.000015 0.000040
											CHANNELS 6 Xposition Yposition Zposition Xrotation Yrotation Zrotation
											JOINT mixamorig:LeftHandRing4
											{
												OFFSET 2.644348 0.000000 0.000057
												CHANNELS 6 Xposition Yposition Zposition Xrotation Yrotation Zrotation
												End Site
												{
													OFFSET 264.434631 0.000000 0.012105
												}
											}
										}
									}
								}
								JOINT mixamorig:LeftHandPinky1
								{
									OFFSET 8.077789 -0.486847 -3.806259
									CHANNELS 6 Xposition Yposition Zposition Xrotation Yrotation Zrotation
									JOINT mixamorig:LeftHandPinky2
									{
										OFFSET 3.599953 0.000031 0.014727
										CHANNELS 6 Xposition Yposition Zposition Xrotation Yrotation Zrotation
										JOINT mixamorig:LeftHandPinky3
										{
											OFFSET 2.100021 0.000015 0.007705
											CHANNELS 6 Xposition Yposition Zposition Xrotation Yrotation Zrotation
											JOINT mixamorig:LeftHandPinky4
											{
												OFFSET 2.125504 0.000031 0.007517
												CHANNELS 6 Xposition Yposition Zposition Xrotation Yrotation Zrotation
												End Site
												{
													OFFSET 212.550781 0.000000 0.625752
												}
											}
										}
									}
								}
							}
						}
					}
				}
			}
		}
	}
	JOINT mixamorig:RightUpLeg
	{
		OFFSET -8.207787 -6.751648 -1.599560
		CHANNELS 6 Xposition Yposition Zposition Xrotation Yrotation Zrotation
		JOINT mixamorig:RightLeg
		{
			OFFSET -0.000002 -44.370117 0.345942
			CHANNELS 6 Xposition Yposition Zposition Xrotation Yrotation Zrotation
			JOINT mixamorig:RightFoot
			{
				OFFSET 0.000003 -44.423679 -3.043532
				CHANNELS 6 Xposition Yposition Zposition Xrotation Yrotation Zrotation
				JOINT mixamorig:RightToeBase
				{
					OFFSET -0.000002 -8.728671 10.710558
					CHANNELS 6 Xposition Yposition Zposition Xrotation Yrotation Zrotation
					JOINT mixamorig:RightToe_End
					{
						OFFSET -0.000001 -0.000679 9.278119
						CHANNELS 6 Xposition Yposition Zposition Xrotation Yrotation Zrotation
						End Site
						{
							OFFSET 0.000000 -0.067690 927.812134
						}
					}
				}
			}
		}
	}
	JOINT mixamorig:LeftUpLeg
	{
		OFFSET 8.207793 -6.751686 -1.599556
		CHANNELS 6 Xposition Yposition Zposition Xrotation Yrotation Zrotation
		JOINT mixamorig:LeftLeg
		{
			OFFSET -0.000004 -44.370014 0.346954
			CHANNELS 6 Xposition Yposition Zposition Xrotation Yrotation Zrotation
			JOINT mixamorig:LeftFoot
			{
				OFFSET -0.000001 -44.423672 -3.044401
				CHANNELS 6 Xposition Yposition Zposition Xrotation Yrotation Zrotation
				JOINT mixamorig:LeftToeBase
				{
					OFFSET -0.000002 -8.728669 10.710558
					CHANNELS 6 Xposition Yposition Zposition Xrotation Yrotation Zrotation
					JOINT mixamorig:LeftToe_End
					{
						OFFSET -0.000003 -0.000679 9.278133
						CHANNELS 6 Xposition Yposition Zposition Xrotation Yrotation Zrotation
						End Site
						{
							OFFSET 0.000000 -0.068021 927.813477
						}
					}
				}
			}
		}
	}
}
MOTION
Frames: 3
Frame Time: 0.033333
0.000006 104.270477 1.554256 0.000010 0.000003 -0.000113 -0.000005 10.181587 0.131522 0.000001 -0.000003 0.000084 -0.000000 9.893967 -1.470711 0.000001 0.000000 -0.000000 -0.000000 9.220802 -1.370642 0.000000 -0.000000 -0.000000 0.000001 16.740433 -2.049030 0.000000 -0.000000 -0.000000 0.000000 9.617859 1.685014 0.000000 0.000000 0.000000 0.000002 22.037384 7.501101 0.000000 -0.000000 0.000000 -4.569968 11.014880 -2.160881 0.000008 0.000001 -0.000038 -10.592873 -0.524780 -2.231884 74.190935 33.558980 -25.688415 -27.841522 0.000017 0.000544 -52.331321 106.623030 66.803949 -28.328814 -0.000007 0.000034 -0.000322 -0.000045 0.000007 -2.464423 -1.573867 2.682377 -37.985793 -159.108779 13.002726 -3.215279 -1.872592 1.924660 153.998499 31.340009 2.624012 -2.654953 -1.527890 1.513074 145.597544 27.145696 -37.802812 -2.018831 -1.151996 1.108057 -0.000004 0.000000 0.000007 -9.108390 -0.517559 2.260129 97.779342 17.549063 -20.114620 -3.700073 0.000292 0.001506 93.146541 14.349442 -15.125649 -2.850092 0.000363 -0.000271 92.780012 11.966524 -12.556073 -2.772163 -0.000001 -0.000019 0.000001 -0.000001 -0.000000 -9.532589 0.000257 0.000226 89.985577 16.727251 -16.866356 -3.700064 0.000319 0.003955 89.484603 12.945135 -12.735454 -2.950053 0.000330 -0.001828 90.434949 12.724885 -12.813800 -2.946641 0.000003 -0.000154 0.000000 -0.000000 0.000001 -9.103713 -0.042761 -1.864882 88.031446 18.911737 -18.239940 -3.379338 0.000315 -0.000853 85.163566 9.793213 -9.018978 -2.889746 0.000349 0.000598 89.425775 6.586503 -6.565822 -2.638823 -0.000017 0.000939 0.000000 0.000003 -0.000001 -8.076754 -0.486407 -3.806052 82.361973 18.122140 -15.751067 -3.600047 0.000274 -0.003556 82.982181 8.575456 -7.272354 -2.100024 0.000310 -0.005520 84.264256 5.998477 -5.227406 -2.115769 -0.000041 -0.003678 -0.000003 0.000001 -0.000003 4.570446 11.014691 -2.160851 -0.000018 0.000010 -0.000021 10.592415 -0.524471 -2.232370 73.950861 -18.093460 13.671463 27.841829 0.000075 -0.000182 106.228389 -70.610994 86.681808 28.328819 -0.000043 0.000022 0.000022 -0.000090 -0.000001 2.465875 -1.576050 2.681880 -53.655070 177.539443 30.328304 3.217807 -1.871741 1.916373 153.642524 -30.488957 2.550339 2.656091 -1.528618 1.514449 140.943098 -27.665493 43.919605 2.020899 -1.154058 1.115145 -0.000004 0.000001 0.000002 9.109381 -0.517865 2.259744 83.493011 -17.556774 15.681744 3.700059 0.000124 -0.000448 78.959992 -19.252329 15.922061 2.850059 0.000164 0.000210 78.996049 -15.868985 13.106134 2.774881 -0.000046 -0.000027 0.000002 0.000000 -0.000001 9.533452 0.000205 -0.000092 85.028158 -16.240356 14.896585 3.700041 0.000176 -0.000376 84.279603 -14.960855 13.548479 2.950079 0.000156 -0.000182 85.381401 -17.818620 16.459747 2.952860 -0.000018 0.000065 0.000001 -0.000001 -0.000001 9.104583 -0.042850 -1.865218 85.593096 -15.446328 14.315864 3.150043 0.000209 -0.000098 88.770582 -10.839746 10.612698 2.950032 0.000174 -0.000076 91.307779 -12.592617 12.882775 2.644326 0.000030 0.000052 -0.000002 0.000001 -0.000000 8.077841 -0.486722 -3.806389 76.767413 -16.346562 13.450798 3.600003 0.000200 0.014548 80.575673 -10.749072 9.540518 2.100040 0.000196 0.007547 83.029248 -9.748823 9.050258 2.125496 0.000000 0.007515 0.000000 0.000002 -0.000000 -8.207786 -6.751667 -1.599560 -0.077001 -0.000003 0.000080 -0.000002 -44.370110 0.345938 0.153719 -0.000000 -0.000000 0.000000 -44.423679 -3.043532 -0.076700 0.000000 -0.000002 -0.000006 -8.728667 10.710559 -0.000009 -0.000000 -0.000000 -0.000001 -0.000679 9.278123 0.000000 -0.000000 -0.000000 8.207792 -6.751710 -1.599556 -0.074518 -0.000003 0.000081 -0.000002 -44.370014 0.346960 0.148822 0.000002 0.000000 -0.000001 -44.423664 -3.044403 -0.074314 0.000000 -0.000002 -0.000004 -8.728671 10.710558 0.000007 -0.000000 -0.000000 0.000000 -0.000680 9.278137 -0.000000 0.000000 -0.000001 
0.000006 104.270477 1.554256 0.000010 0.000003 -0.000113 -0.000005 10.181587 0.131522 0.000001 -0.000003 0.000084 -0.000000 9.893967 -1.470711 0.000001 0.000000 -0.000000 -0.000000 9.220802 -1.370642 0.000000 -0.000000 -0.000000 0.000001 16.740433 -2.049030 0.000000 -0.000000 -0.000000 0.000000 9.617859 1.685014 0.000000 0.000000 0.000000 0.000002 22.037384 7.501101 0.000000 -0.000000 0.000000 -4.569968 11.014880 -2.160881 0.000008 0.000001 -0.000038 -10.592869 -0.524774 -2.231886 74.876939 34.030273 -26.372590 -27.841511 0.000020 0.000536 -49.538775 104.780983 61.839460 -28.328819 0.000021 0.000029 -0.000322 -0.000043 0.000003 -2.464402 -1.573834 2.682374 -40.385915 -158.541367 7.268054 -3.215281 -1.872561 1.924621 150.590249 32.380807 13.466911 -2.654980 -1.527839 1.513051 144.243104 28.046883 -29.038539 -2.018819 -1.152012 1.108065 -0.000002 -0.000003 0.000002 -9.108376 -0.517560 2.260116 97.114464 16.611853 -18.829968 -3.700074 0.000302 0.001508 95.315993 14.347203 -15.701372 -2.850103 0.000356 -0.000254 95.927043 12.397137 -13.737449 -2.772162 -0.000016 -0.000019 -0.000001 0.000000 -0.000001 -9.532569 0.000262 0.000218 88.132929 16.041466 -15.671432 -3.700062 0.000322 0.003941 91.383491 10.570066 -10.731674 -2.950064 0.000336 -0.001790 94.159280 11.897740 -12.779553 -2.946630 0.000005 -0.000155 -0.000003 0.000001 0.000002 -9.103709 -0.042759 -1.864872 86.482284 18.277993 -17.163121 -3.379326 0.000334 -0.000836 90.239715 7.604669 -7.653435 -2.889746 0.000357 0.000640 96.667046 6.396124 -7.236130 -2.638802 -0.000030 0.000939 -0.000003 0.000001 0.000000 -8.076753 -0.486394 -3.806036 79.952316 19.988301 -16.677363 -3.600032 0.000267 -0.003537 84.184117 8.737681 -7.573206 -2.100035 0.000320 -0.005504 86.457914 5.414010 -4.884056 -2.115763 -0.000027 -0.003680 -0.000005 0.000003 -0.000005 4.570446 11.014691 -2.160851 -0.000018 0.000010 -0.000021 10.592392 -0.524482 -2.232336 73.712590 -9.537999 7.157298 27.841831 0.000073 -0.000205 106.150033 -71.921428 87.982556 28.328840 -0.000028 0.000021 0.000022 -0.000089 -0.000000 2.466041 -1.576181 2.681908 -34.566740 161.125501 -21.376023 3.217818 -1.871760 1.916378 159.340131 -29.691652 8.800784 2.656113 -1.528647 1.514475 141.800915 -27.128142 49.502001 2.020906 -1.154079 1.115141 -0.000001 0.000001 0.000002 9.109374 -0.517860 2.259747 85.912100 -18.334839 17.078763 3.700036 0.000145 -0.000466 81.889296 -13.077165 11.372571 2.850034 0.000189 0.000192 81.281956 -10.782739 9.261406 2.774888 -0.000044 -0.000017 0.000001 -0.000002 -0.000000 9.533463 0.000200 -0.000079 85.604933 -17.952469 16.636533 3.700036 0.000180 -0.000360 87.336905 -11.932858 11.391823 2.950061 0.000179 -0.000206 89.095631 -12.055331 11.870769 2.952881 -0.000048 0.000069 -0.000003 -0.000002 0.000000 9.104591 -0.042850 -1.865227 86.963376 -17.688161 16.789949 3.150055 0.000210 -0.000099 90.988058 -10.842930 11.032227 2.950015 0.000184 -0.000077 93.118243 -9.699290 10.241064 2.644336 0.000033 0.000055 0.000002 -0.000002 -0.000001 8.077853 -0.486718 -3.806410 82.055509 -18.507229 16.661164 3.599993 0.000182 0.014558 82.358578 -14.074170 12.777636 2.100035 0.000193 0.007533 84.938744 -10.391652 9.949779 2.125503 -0.000014 0.007513 0.000002 -0.000003 0.000000 -8.207786 -6.751667 -1.599560 -0.077001 -0.000003 0.000080 -0.000002 -44.370110 0.345938 0.153719 -0.000000 -0.000000 0.000000 -44.423679 -3.043532 -0.076700 0.000000 -0.000002 -0.000006 -8.728667 10.710559 -0.000009 -0.000000 -0.000000 -0.000001 -0.000679 9.278123 0.000000 -0.000000 -0.000000 8.207792 -6.751710 -1.599556 -0.074518 -0.000003 0.000081 -0.000002 -44.370014 0.346960 0.148822 0.000002 0.000000 -0.000001 -44.423664 -3.044403 -0.074314 0.000000 -0.000002 -0.000004 -8.728671 10.710558 0.000007 -0.000000 -0.000000 0.000000 -0.000680 9.278137 -0.000000 0.000000 -0.000001 
0.000006 104.270477 1.554256 0.000010 0.000003 -0.000113 -0.000005 10.181587 0.131522 0.000001 -0.000003 0.000084 -0.000000 9.893967 -1.470711 0.000001 0.000000 -0.000000 -0.000000 9.220802 -1.370642 0.000000 -0.000000 -0.000000 0.000001 16.740433 -2.049030 0.000000 -0.000000 -0.000000 0.000000 9.617859 1.685014 0.000000 0.000000 0.000000 0.000002 22.037384 7.501101 0.000000 -0.000000 0.000000 -4.569968 11.014880 -2.160881 0.000008 0.000001 -0.000038 -10.592856 -0.524795 -2.231837 75.148979 41.591720 -32.576953 -27.841515 -0.000010 0.000548 -47.481727 102.579401 57.514407 -28.328833 -0.000006 0.000022 -0.000321 -0.000046 0.000006 -2.464399 -1.573822 2.682348 -42.175592 -159.077237 3.294285 -3.215271 -1.872570 1.924641 150.143909 32.496691 15.029293 -2.654955 -1.527840 1.513065 144.448351 28.024206 -28.979010 -2.018842 -1.151990 1.108065 -0.000005 -0.000001 0.000002 -9.108374 -0.517531 2.260120 97.009764 15.639581 -17.702319 -3.700089 0.000319 0.001493 94.592451 13.042051 -14.095711 -2.850099 0.000370 -0.000266 94.307550 11.284240 -12.158803 -2.772164 -0.000016 -0.000025 0.000002 -0.000002 0.000000 -9.532580 0.000272 0.000206 87.217062 15.061546 -14.489375 -3.700061 0.000327 0.003943 90.916914 9.706151 -9.768488 -2.950047 0.000344 -0.001820 94.024589 11.150145 -11.948952 -2.946633 0.000001 -0.000155 -0.000001 0.000000 0.000000 -9.103691 -0.042758 -1.864892 85.304309 17.568677 -16.162430 -3.379316 0.000312 -0.000829 90.226294 7.143716 -7.188768 -2.889750 0.000357 0.000641 97.597953 5.848381 -6.729780 -2.638805 -0.000028 0.000938 0.000001 -0.000000 -0.000002 -8.076746 -0.486398 -3.806035 79.562797 19.180795 -15.886692 -3.600028 0.000279 -0.003547 83.774913 7.666636 -6.562164 -2.100003 0.000328 -0.005536 86.714989 4.352025 -3.906264 -2.115761 -0.000043 -0.003677 0.000002 -0.000002 -0.000003 4.570446 11.014691 -2.160851 -0.000018 0.000010 -0.000021 10.592435 -0.524469 -2.232384 73.532908 -25.723935 19.363672 27.841829 0.000033 -0.000197 108.499659 -74.317690 92.946717 28.328815 -0.000028 0.000018 0.000024 -0.000088 -0.000000 2.466057 -1.576164 2.681912 -29.807799 158.269977 -29.879728 3.217844 -1.871799 1.916381 159.349871 -27.222574 20.955546 2.656088 -1.528646 1.514465 141.507436 -27.235854 49.153654 2.020876 -1.154067 1.115143 -0.000000 0.000004 0.000003 9.109387 -0.517862 2.259743 86.158369 -18.639919 17.437577 3.700050 0.000145 -0.000469 82.539988 -13.651432 12.008445 2.850039 0.000187 0.000198 81.523567 -11.376282 9.813672 2.774902 -0.000031 -0.000023 -0.000000 -0.000001 0.000000 9.533465 0.000220 -0.000077 85.544226 -18.224565 16.871715 3.700052 0.000168 -0.000379 86.512330 -12.720026 11.971477 2.950053 0.000165 -0.000209 87.001515 -12.344434 11.722024 2.952880 -0.000031 0.000064 0.000001 0.000000 0.000000 9.104593 -0.042840 -1.865214 86.219868 -17.902949 16.777783 3.150058 0.000205 -0.000095 89.551642 -12.332250 12.238668 2.950023 0.000191 -0.000092 90.578472 -10.447780 10.554954 2.644317 0.000030 0.000057 0.000001 -0.000000 0.000000 8.077855 -0.486702 -3.806412 81.528027 -18.722894 16.697430 3.600006 0.000174 0.014563 81.023495 -15.426795 13.650281 2.100046 0.000194 0.007539 83.093261 -11.282948 10.430355 2.125497 -0.000001 0.007512 -0.000002 0.000000 -0.000001 -8.207786 -6.751667 -1.599560 -0.077001 -0.000003 0.000080 -0.000002 -44.370110 0.345938 0.153719 -0.000000 -0.000000 0.000000 -44.423679 -3.043532 -0.076700 0.000000 -0.000002 -0.000006 -8.728667 10.710559 -0.000009 -0.000000 -0.000000 -0.000001 -0.000679 9.278123 0.000000 -0.000000 -0.000000 8.207792 -6.751710 -1.599556 -0.074518 -0.000003 0.000081 -0.000002 -44.370014 0.346960 0.148822 0.000002 0.000000 -0.000001 -44.423664 -3.044403 -0.074314 0.000000 -0.000002 -0.000004 -8.728671 10.710558 0.000007 -0.000000 -0.000000 0.000000 -0.000680 9.278137 -0.000000 0.000000 -0.000001 
